<?xml version="1.0" encoding="iso-8859-1"?>
<!-- Generator: Adobe Illustrator 19.0.0, SVG Export Plug-In . SVG Version: 6.00 Build 0)  -->
<svg version="1.1" id="Layer_1" xmlns="http://www.w3.org/2000/svg" xmlns:xlink="http://www.w3.org/1999/xlink" x="0px" y="0px"
	 viewBox="0 0 512 512" style="enable-background:new 0 0 512 512;" xml:space="preserve">
<circle style="fill:#FAD24D;" cx="256" cy="256" r="256"/>
<path style="fill:#FF5B62;" d="M387.102,156.934l-18.117,252.509c-1.103,15.395-11.869,28.117-26.324,28.117H171.565
	c-14.452,0-25.103-12.708-26.323-28.117l-20.024-252.509H387.102z"/>
<path style="fill:#ED4C54;" d="M364.687,423.925c-4.617,8.138-12.524,13.634-22.024,13.634H171.565
	c-9.5,0-17.358-5.493-21.974-13.634H364.687L364.687,423.925z"/>
<path style="fill:#FFFFFF;" d="M133.772,116.96h82.433c-0.037-0.698-0.056-1.4-0.056-2.107v-0.001
	c0-22.227,17.932-40.411,39.85-40.411H256c21.919,0,39.851,18.184,39.851,40.411v0.001c0,0.706-0.019,1.408-0.056,2.107h82.45
	c16.44,0,31.259,13.747,29.889,30.308l-1.256,15.154H105.27l-1.387-15.154C102.365,130.67,117.332,116.96,133.772,116.96
	L133.772,116.96z M233.682,116.96h44.637c0.064-0.696,0.098-1.397,0.098-2.107v-0.001c0-12.504-10.086-22.731-22.416-22.731h-0.001
	c-12.329,0-22.415,10.228-22.415,22.731v0.001C233.584,115.563,233.618,116.265,233.682,116.96L233.682,116.96z"/>
<path style="fill:#ECF0F1;" d="M407.42,155.911l-0.54,6.51H105.27l-0.597-6.51H407.42z"/>
<path style="fill:#ED4C54;" d="M185.853,162.422h21.42v223.77c0,15.942-21.42,15.942-21.42,0V162.422z M145.382,162.422h21.42
	l5.429,223.77c0.386,15.957-21.033,15.987-21.42,0L145.382,162.422z M366.936,162.422h-21.42l-5.429,223.77
	c-0.385,15.957,21.033,15.987,21.42,0L366.936,162.422z M305.045,162.422h21.42v223.77c0,15.942-21.42,15.942-21.42,0V162.422z
	 M265.314,162.422h21.42v223.77c0,15.942-21.42,15.942-21.42,0V162.422z M225.583,162.422h21.42v223.77
	c0,15.942-21.42,15.942-21.42,0V162.422z"/>
<g>
</g>
<g>
</g>
<g>
</g>
<g>
</g>
<g>
</g>
<g>
</g>
<g>
</g>
<g>
</g>
<g>
</g>
<g>
</g>
<g>
</g>
<g>
</g>
<g>
</g>
<g>
</g>
<g>
</g>
</svg>
