<svg height="512pt" viewBox="-123 0 512 512" width="512pt" xmlns="http://www.w3.org/2000/svg"><path d="m180.699219 188.523438c-4.140625 0-7.5-3.359376-7.5-7.5v-12.449219c0-4.144531 3.359375-7.5 7.5-7.5 4.144531 0 7.5 3.355469 7.5 7.5v12.449219c0 4.140624-3.355469 7.5-7.5 7.5zm0 0"/><path d="m85.886719 188.523438c-4.144531 0-7.5-3.359376-7.5-7.5v-12.449219c0-4.144531 3.355469-7.5 7.5-7.5 4.140625 0 7.5 3.355469 7.5 7.5v12.449219c0 4.140624-3.359375 7.5-7.5 7.5zm0 0"/><path d="m138.414062 173.53125c-1.679687 2.46875-4.125 2.765625-5.121093 2.765625-.996094 0-3.484375-.269531-5.125-2.765625-2.273438-3.460938-6.921875-4.425781-10.382813-2.148438-3.464844 2.273438-4.425781 6.921876-2.152344 10.382813 3.917969 5.96875 10.519532 9.53125 17.660157 9.53125s13.738281-3.5625 17.660156-9.53125c2.273437-3.460937 1.3125-8.109375-2.152344-10.382813-1.269531-.835937-6.882812-2.996093-10.386719 2.148438zm0 0"/><path d="m152.085938 244.664062c-11.765626-6.304687-25.816407-6.308593-37.585938 0-12.230469 6.550782-26.085938 9.699219-40.066406 9.105469-19.8125-.84375-38.410156-9.230469-52.363282-23.609375-13.953124-14.371094-21.785156-33.207031-22.0624995-53.042968-.1328125-9.613282 1.4687495-19.019532 4.7578125-27.960938 1.429687-3.886719 5.738281-5.882812 9.625-4.453125 3.886719 1.433594 5.878906 5.742187 4.449219 9.628906-2.648438 7.210938-3.941406 14.808594-3.832032 22.578125.222657 15.988282 6.554688 31.191406 17.824219 42.804688 11.273438 11.617187 26.277344 18.386718 42.242188 19.066406 11.292969.476562 22.480469-2.054688 32.34375-7.339844 16.203125-8.679687 35.550781-8.679687 51.753906 0 9.863281 5.285156 21.050781 7.816406 32.34375 7.339844 15.964844-.679688 30.964844-7.449219 42.238281-19.066406 11.273438-11.613282 17.605469-26.816406 17.828125-42.804688.359375-25.859375-14.828125-48.984375-38.691406-58.921875-19.214844-8-31.628906-26.632812-31.628906-47.46875v-29.617187c0-14.285156-11.617188-25.902344-25.902344-25.902344h-44.128906c-14.28125 0-25.902344 11.617188-25.902344 25.902344v29.617187c0 20.835938-12.414063 39.46875-31.628906 47.46875-7.859375 3.273438-14.875 8.039063-20.851563 14.167969-2.894531 2.964844-7.640625 3.027344-10.605468.132812-2.964844-2.890624-3.027344-7.640624-.132813-10.605468 7.394531-7.582032 16.085937-13.484375 25.824219-17.542969 13.605468-5.664063 22.394531-18.859375 22.394531-33.621094v-29.617187c0-22.554688 18.347656-40.902344 40.898437-40.902344h44.132813c22.550781 0 40.898437 18.347656 40.898437 40.902344v29.617187c0 14.757813 8.789063 27.957031 22.394532 33.621094 29.558594 12.304687 48.371094 40.953125 47.925781 72.976563-.277344 19.832031-8.109375 38.671874-22.058594 53.042968-13.957031 14.378906-32.535156 23.609375-52.367187 23.609375-18.953125 0-28.8125-3.078125-40.066406-9.105469zm0 0"/><path d="m155.359375 512h-44.132813c-22.550781 0-40.898437-18.347656-40.898437-40.902344v-29.617187c0-14.757813-8.792969-27.957031-22.394531-33.621094-29.558594-12.304687-48.371094-40.953125-47.9257815-72.976563.2773435-19.835937 8.1093755-38.671874 22.0585935-53.042968 13.957032-14.378906 32.554688-22.765625 52.367188-23.609375 13.984375-.601563 27.839844 2.554687 40.066406 9.105469 11.769531 6.304687 25.816406 6.304687 37.585938 0 12.226562-6.554688 26.082031-9.699219 40.066406-9.105469 19.8125.84375 38.410156 9.230469 52.367187 23.609375 13.949219 14.371094 21.78125 33.207031 22.058594 53.042968.445313 32.023438-18.367187 60.671876-47.925781 72.976563-12.546875 5.226563-21.074219 16.890625-22.253906 30.445313-.359376 4.128906-3.992188 7.179687-8.125 6.824218-4.125-.359375-7.179688-3.996094-6.820313-8.125 1.667969-19.140625 13.710937-35.613281 31.4375-42.992187 23.859375-9.933594 39.046875-33.0625 38.6875-58.921875-.222656-15.988282-6.550781-31.191406-17.824219-42.804688-11.273437-11.617187-26.273437-18.386718-42.242187-19.066406-11.300781-.476562-22.480469 2.054688-32.34375 7.339844-16.203125 8.679687-35.550781 8.679687-51.753907 0-9.859374-5.285156-21.039062-7.816406-32.34375-7.339844-15.964843.679688-30.964843 7.449219-42.238281 19.066406-11.273437 11.613282-17.605469 26.816406-17.828125 42.804688-.355468 25.859375 14.832032 48.984375 38.691406 58.921875 19.214844 8 31.628907 26.632812 31.628907 47.46875v29.617187c0 14.285156 11.621093 25.902344 25.902343 25.902344h44.128907c14.285156 0 25.902343-11.617188 25.902343-25.902344 0-4.140625 3.359376-7.5 7.5-7.5 4.140626 0 7.5 3.359375 7.5 7.5 0 22.554688-18.347656 40.902344-40.898437 40.902344zm0 0"/></svg>