<?xml version="1.0" encoding="iso-8859-1"?>
<!-- Generator: Adobe Illustrator 19.1.0, SVG Export Plug-In . SVG Version: 6.00 Build 0)  -->
<svg version="1.1" id="Capa_1" xmlns="http://www.w3.org/2000/svg" xmlns:xlink="http://www.w3.org/1999/xlink" x="0px" y="0px"
	 viewBox="0 0 531.185 531.185" style="enable-background:new 0 0 531.185 531.185;" xml:space="preserve">
<g>
	<g>
		<path d="M278.302,214.697c-12.134-12.133-27.688-19.947-45.007-22.575l-2.7,17.787c13.484,2.071,25.582,8.138,34.979,17.517
			l38.184,38.184c24.556,24.574,24.556,64.539,0,89.113L163.734,494.729c-23.8,23.799-65.296,23.799-89.095,0l-38.184-38.184
			c-11.9-11.917-18.453-27.724-18.453-44.556s6.553-32.656,18.453-44.556L176.461,227.41l-12.728-12.728L23.727,354.706
			C8.425,370.008,0,390.351,0,411.99s8.425,41.982,23.727,57.284l38.184,38.184c15.302,15.302,35.645,23.727,57.284,23.727
			s41.982-8.425,57.266-23.728L316.486,367.45c31.595-31.595,31.595-82.974,0-114.569L278.302,214.697z"/>
		<path d="M507.458,61.911l-38.184-38.184C453.972,8.425,433.629,0,411.99,0c-21.64,0-41.983,8.425-57.285,23.745L214.68,163.751
			c-31.595,31.595-31.595,82.974,0,114.569l38.184,38.184c12.17,12.169,27.778,19.965,45.151,22.593l2.683-17.803
			c-13.538-2.053-25.672-8.12-35.087-17.535l-38.184-38.184c-24.556-24.574-24.556-64.539,0-89.113L367.45,36.456
			c23.8-23.799,65.296-23.799,89.095,0l38.184,38.184c11.9,11.917,18.453,27.724,18.453,44.556s-6.553,32.656-18.453,44.556
			L354.723,303.776l12.728,12.728l140.007-140.025c15.302-15.302,23.727-35.627,23.727-57.284
			C531.185,97.538,522.778,77.213,507.458,61.911z"/>
	</g>
</g>
<g>
</g>
<g>
</g>
<g>
</g>
<g>
</g>
<g>
</g>
<g>
</g>
<g>
</g>
<g>
</g>
<g>
</g>
<g>
</g>
<g>
</g>
<g>
</g>
<g>
</g>
<g>
</g>
<g>
</g>
</svg>
