<svg height="511pt" viewBox="0 0 511.99976 511" width="511pt" xmlns="http://www.w3.org/2000/svg"><path d="m495.347656 17.152344c-11.980468-11.980469-28.519531-17.964844-45.394531-16.410156-13.195313 1.210937-25.621094 7.039062-34.992187 16.410156l-21.964844 21.964844c-3.90625 3.902343-3.90625 10.234374 0 14.140624s10.234375 3.90625 14.144531 0l21.964844-21.964843c6.070312-6.074219 14.125-9.851563 22.679687-10.636719 10.945313-1.003906 21.65625 2.875 29.421875 10.636719 7.765625 7.765625 11.644531 18.488281 10.636719 29.425781-.785156 8.550781-4.5625 16.605469-10.636719 22.679688l-184.058593 184.054687-52.101563-52.101563 105.46875-105.46875c3.902344-3.90625 3.902344-10.238281 0-14.144531-3.90625-3.902343-10.238281-3.902343-14.144531 0l-112.539063 112.542969-75.253906 75.25c-.234375.238281-.457031.484375-.664063.734375-32.828124-6.871094-68.390624 2.398437-93.828124 27.835937-28.035157 28.035157-45.988282 69.714844-51.917969 120.527344-4.425781 37.894532-.730469 67.34375-.570313 68.578125.59375 4.605469 4.277344 8.195313 8.894532 8.667969.707031.074219 10.457031 1.042969 25.613281 1.042969 11.875 0 27.066406-.59375 43.824219-2.6875 51.230468-6.398438 92.523437-23.992188 119.414062-50.878907 25.019531-25.019531 34.40625-59.847656 28.160156-92.226562.515625-.351562 1.003906-.75 1.460938-1.203125l266.382812-266.382813c9.371094-9.371093 15.199219-21.796874 16.410156-34.992187 1.550782-16.871094-4.429687-33.417969-16.410156-45.394531zm-297.40625 409.632812h-28.894531c-7.253906 0-14.320313-1.410156-21.007813-4.191406-5.097656-2.125-10.953124.292969-13.074218 5.390625s.292968 10.953125 5.390625 13.074219c9.136719 3.800781 18.789062 5.726562 28.691406 5.726562h12.394531c-49.363281 45.101563-134.203125 44.992188-160.738281 43.734375-1.261719-18.339843-2.371094-64.722656 13.390625-108.484375h22.875c8.222656 0 16.148438 1.796875 23.5625 5.335938 1.390625.664062 2.855469.976562 4.300781.976562 3.730469 0 7.3125-2.097656 9.03125-5.691406 2.378907-4.984375.269531-10.953125-4.714843-13.332031-9.980469-4.769531-21.109376-7.289063-32.179688-7.289063h-14.285156c6.539062-12.910156 14.890625-25.136718 25.546875-35.792968 32.246093-32.246094 84.71875-32.25 116.96875 0 27.214843 27.214843 31.460937 68.835937 12.742187 100.542968zm22.941406-83.066406c-4.984374-11.488281-12.164062-22.242188-21.539062-31.617188-8.980469-8.976562-19.222656-15.9375-30.160156-20.890624l61.71875-61.71875 52.105468 52.105468zm0 0"/><path d="m408.003906 357.703125c-5.523437 0-10 4.476563-10 10v14.414063c0 5.523437 4.476563 10 10 10 5.519532 0 10-4.476563 10-10v-14.414063c0-5.523437-4.476562-10-10-10zm0 0"/><path d="m408.003906 423.285156c-5.523437 0-10 4.480469-10 10v14.417969c0 5.519531 4.476563 10 10 10 5.519532 0 10-4.480469 10-10v-14.417969c0-5.519531-4.476562-10-10-10zm0 0"/><path d="m448.003906 397.703125h-14.414062c-5.523438 0-10 4.476563-10 9.996094 0 5.523437 4.476562 10 10 10h14.414062c5.519532 0 10-4.476563 10-10 0-5.519531-4.480468-9.996094-10-9.996094zm0 0"/><path d="m382.417969 397.703125h-14.414063c-5.523437 0-10 4.476563-10 9.996094 0 5.523437 4.476563 10 10 10h14.414063c5.519531 0 10-4.476563 10-10 0-5.519531-4.476563-9.996094-10-9.996094zm0 0"/><path d="m104.007812 88.121094c5.519532 0 10-4.476563 10-10v-14.414063c0-5.523437-4.480468-10-10-10-5.523437 0-10 4.476563-10 10v14.414063c0 5.523437 4.476563 10 10 10zm0 0"/><path d="m104.007812 153.703125c5.519532 0 10-4.476563 10-10v-14.414063c0-5.523437-4.480468-10-10-10-5.523437 0-10 4.476563-10 10v14.414063c0 5.523437 4.476563 10 10 10zm0 0"/><path d="m129.59375 113.703125h14.414062c5.519532 0 10-4.476563 10-9.996094 0-5.523437-4.480468-10-10-10h-14.414062c-5.523438 0-10 4.476563-10 10 0 5.519531 4.476562 9.996094 10 9.996094zm0 0"/><path d="m64.007812 113.703125h14.414063c5.523437 0 10-4.476563 10-9.996094 0-5.523437-4.476563-10-10-10h-14.414063c-5.523437 0-10 4.476563-10 10 0 5.519531 4.476563 9.996094 10 9.996094zm0 0"/><path d="m371.824219 84.515625c2.640625 0 5.21875-1.070313 7.078125-2.929687 1.859375-1.859376 2.933594-4.441407 2.933594-7.070313s-1.070313-5.210937-2.933594-7.070313c-1.859375-1.859374-4.4375-2.929687-7.078125-2.929687-2.628907 0-5.199219 1.070313-7.070313 2.929687-1.859375 1.859376-2.929687 4.441407-2.929687 7.070313s1.070312 5.210937 2.929687 7.070313c1.871094 1.859374 4.441406 2.929687 7.070313 2.929687zm0 0"/><path d="m113.007812 394.410156c-2.628906 0-5.210937 1.070313-7.070312 2.929688s-2.929688 4.441406-2.929688 7.070312c0 2.632813 1.066407 5.210938 2.929688 7.070313 1.859375 1.859375 4.429688 2.929687 7.070312 2.929687 2.628907 0 5.210938-1.070312 7.066407-2.929687 1.863281-1.859375 2.933593-4.4375 2.933593-7.070313 0-2.640625-1.070312-5.210937-2.933593-7.070312-1.855469-1.859375-4.4375-2.929688-7.066407-2.929688zm0 0"/></svg>