<?xml version="1.0" encoding="iso-8859-1"?>
<!-- Generator: Adobe Illustrator 19.1.0, SVG Export Plug-In . SVG Version: 6.00 Build 0)  -->
<svg version="1.1" id="Capa_1" xmlns="http://www.w3.org/2000/svg" xmlns:xlink="http://www.w3.org/1999/xlink" x="0px" y="0px"
	 viewBox="0 0 540.078 540.078" style="enable-background:new 0 0 540.078 540.078;" xml:space="preserve">
<g>
	<path d="M387.056,360.051h-63.009v-48.182c42.533-20.262,72.01-63.671,72.01-113.841v-72.01C396.057,56.528,339.511,0,270.039,0
		S144.021,56.528,144.021,126.019v72.01c0,50.17,29.477,93.578,72.01,113.84v48.182h-63.009c-44.665,0-81.012,36.348-81.012,81.012
		v54.008c0,24.808,20.181,45.007,45.007,45.007h306.044c24.826,0,45.007-20.199,45.007-45.007v-54.008
		C468.068,396.398,431.72,360.051,387.056,360.051z M162.023,198.029v-72.01c0-59.571,48.445-108.016,108.016-108.016
		s108.016,48.445,108.016,108.016v72.01c0,59.571-48.445,108.016-108.016,108.016S162.023,257.6,162.023,198.029z M270.039,324.047
		c12.507,0,24.591-1.841,36.005-5.251v64.875c0,4.23-2.934,7.885-7.147,8.911c-19.118,4.609-38.615,4.609-57.734,0
		c-4.195-1.026-7.129-4.68-7.129-8.911v-64.875C245.448,322.206,257.532,324.047,270.039,324.047z M450.065,495.071
		c0,14.888-12.116,27.004-27.004,27.004H117.017c-14.888,0-27.004-12.116-27.004-27.004v-54.008
		c0-34.745,28.264-63.009,63.009-63.009h63.009v5.617c0,12.584,8.605,23.44,20.919,26.41c10.964,2.647,22.089,3.979,33.089,3.979
		s22.125-1.332,33.089-3.979c12.314-2.971,20.919-13.826,20.919-26.41v-5.617h63.009c34.745,0,63.009,28.264,63.009,63.009V495.071
		L450.065,495.071z"/>
</g>
<g>
</g>
<g>
</g>
<g>
</g>
<g>
</g>
<g>
</g>
<g>
</g>
<g>
</g>
<g>
</g>
<g>
</g>
<g>
</g>
<g>
</g>
<g>
</g>
<g>
</g>
<g>
</g>
<g>
</g>
</svg>
