<?xml version="1.0" encoding="iso-8859-1"?>
<!-- Generator: Adobe Illustrator 19.1.0, SVG Export Plug-In . SVG Version: 6.00 Build 0)  -->
<svg version="1.1" id="Capa_1" xmlns="http://www.w3.org/2000/svg" xmlns:xlink="http://www.w3.org/1999/xlink" x="0px" y="0px"
	 viewBox="0 0 539.371 539.371" style="enable-background:new 0 0 539.371 539.371;" xml:space="preserve">
<g>
	<g>
		<path d="M458.712,35.298h-54.799c-81.942-47.064-186.514-47.064-268.456,0h-54.8c-24.825,0-45.006,20.199-45.006,45.007v18.003
			c0,4.968,4.032,9.001,9.001,9.001h27.003v387.055c0,24.808,20.181,45.007,45.007,45.007h306.044
			c24.826,0,45.007-20.18,45.006-45.006V107.309h27.005c4.968,0,9.001-4.015,9.002-9.001V80.305
			C503.719,55.497,483.538,35.298,458.712,35.298z M362.773,35.298H176.596C235.804,11.625,303.564,11.625,362.773,35.298z
			 M449.71,494.365c0,14.888-12.116,27.004-27.004,27.004H116.662c-14.888,0-27.004-12.116-27.004-27.004V107.309H449.71V494.365z
			 M485.715,89.306H53.653v-9.001c0-14.888,12.116-27.004,27.004-27.004h57.176h263.684h57.194
			c14.888,0,27.004,12.116,27.004,27.004L485.715,89.306L485.715,89.306z"/>
		<path d="M251.68,179.319c0-9.92,8.065-18.003,18.003-18.003c9.938,0,18.003,8.084,18.003,18.003h18.003
			c0-19.857-16.148-36.005-36.005-36.005s-36.005,16.148-36.005,36.005v270.039h18.003
			C251.682,449.358,251.682,179.319,251.68,179.319z"/>
		<path d="M143.664,179.319c0-9.92,8.065-18.003,18.003-18.003c9.938,0,18.003,8.084,18.003,18.003h18.003
			c0-19.857-16.148-36.005-36.005-36.005s-36.005,16.148-36.005,36.005v270.039h18.001V179.319z"/>
		<path d="M359.695,179.319c0-9.92,8.065-18.003,18.003-18.003s18.003,8.084,18.003,18.003h18.003
			c0-19.857-16.148-36.005-36.005-36.005s-36.005,16.148-36.005,36.005v270.039h18.001L359.695,179.319L359.695,179.319z"/>
	</g>
</g>
<g>
</g>
<g>
</g>
<g>
</g>
<g>
</g>
<g>
</g>
<g>
</g>
<g>
</g>
<g>
</g>
<g>
</g>
<g>
</g>
<g>
</g>
<g>
</g>
<g>
</g>
<g>
</g>
<g>
</g>
</svg>
