<?xml version="1.0" encoding="iso-8859-1"?>
<!-- Generator: Adobe Illustrator 19.1.0, SVG Export Plug-In . SVG Version: 6.00 Build 0)  -->
<svg version="1.1" id="Capa_1" xmlns="http://www.w3.org/2000/svg" xmlns:xlink="http://www.w3.org/1999/xlink" x="0px" y="0px"
	 viewBox="0 0 505.459 505.459" style="enable-background:new 0 0 505.459 505.459;" xml:space="preserve">
<g>
	<g>
		<path d="M188.009,415.446h-25.292v-24.581c21.499-12.474,36.005-35.732,36.004-62.317V289.77c0-39.713-32.297-72.01-72.01-72.01
			s-72.01,32.296-72.01,72.01v38.778c0,26.601,14.501,49.857,36.005,62.326v24.572H65.413c-25.762,0-46.717,20.955-46.717,46.717
			v16.292c0,14.888,12.116,27.004,27.004,27.004h162.023c14.888,0,27.004-12.116,27.003-27.004v-16.292
			C234.726,436.401,213.771,415.446,188.009,415.446z M72.703,328.53v-38.778c0-29.777,24.232-54.008,54.008-54.008
			c29.777,0,54.008,24.232,54.008,54.008v38.778c0,29.776-24.232,54.008-54.008,54.008S72.703,358.306,72.703,328.53z
			 M126.711,400.558c6.214,0,12.247-0.793,18.003-2.281v33.678c0,0.882-0.63,1.638-1.512,1.854c-10.982,2.628-22.035,2.628-32.945,0
			c-0.918-0.216-1.548-0.99-1.548-1.854v-33.674C114.465,399.767,120.497,400.558,126.711,400.558z M216.723,478.455
			c0,4.968-4.032,9.001-9.001,9.001H45.699c-4.968,0-9.001-4.032-9.001-9.001v-16.292c0-15.824,12.89-28.714,28.714-28.714H90.77
			c0.639,8.556,6.713,15.783,15.256,17.859c6.859,1.656,13.826,2.484,20.685,2.484s13.826-0.829,20.704-2.484
			c8.526-2.077,14.599-9.304,15.238-17.859h25.356c15.824,0,28.714,12.89,28.714,28.714
			C216.723,462.163,216.723,478.455,216.723,478.455z"/>
		<path d="M440.046,415.446h-25.292v-24.582c21.498-12.474,36.004-35.731,36.004-62.316V289.77c0-39.713-32.297-72.01-72.01-72.01
			s-72.01,32.296-72.01,72.01v38.778c0,26.601,14.501,49.857,36.005,62.326v24.572h-25.294c-25.762,0-46.717,20.955-46.717,46.717
			v16.292c0,14.888,12.116,27.004,27.004,27.004h162.023c14.889,0,27.004-12.116,27.004-27.004v-16.292
			C486.763,436.401,465.808,415.446,440.046,415.446z M324.74,328.53v-38.778c0-29.777,24.232-54.008,54.008-54.008
			c29.776,0,54.007,24.232,54.008,54.008v38.778c0,29.776-24.232,54.008-54.008,54.008S324.74,358.306,324.74,328.53z
			 M378.748,400.558c6.214,0,12.247-0.793,18.003-2.281v33.678c0,0.882-0.63,1.638-1.512,1.854c-10.982,2.628-22.035,2.628-32.945,0
			c-0.918-0.216-1.548-0.99-1.548-1.854v-33.674C366.502,399.767,372.534,400.558,378.748,400.558z M468.76,478.455
			c0,4.968-4.032,9.001-9.001,9.001H297.736c-4.968,0-9.001-4.032-9.001-9.001v-16.292c0-15.824,12.89-28.714,28.714-28.714h25.358
			c0.639,8.556,6.713,15.783,15.256,17.859c6.859,1.656,13.826,2.484,20.685,2.484s13.826-0.829,20.704-2.484
			c8.526-2.077,14.599-9.304,15.238-17.859h25.356c15.824,0,28.714,12.89,28.714,28.714L468.76,478.455L468.76,478.455z"/>
		<path d="M108.709,182.798c39.695,0,72.01-32.314,72.01-72.01V72.01c0-39.713-32.296-72.01-72.01-72.01s-72.011,32.297-72.01,72.01
			v38.778C36.699,150.501,68.995,182.798,108.709,182.798z M54.701,72.011c0-29.776,24.232-54.008,54.008-54.008
			s54.008,24.231,54.008,54.007v38.779c0,29.777-24.232,54.008-54.008,54.008s-54.008-24.232-54.008-54.008V72.011z"/>
		<path d="M324.74,200.801v-38.778c0-39.713-32.297-72.01-72.01-72.01s-72.01,32.296-72.01,72.01v38.778
			c0,39.713,32.296,72.01,72.01,72.01C292.425,272.811,324.74,240.497,324.74,200.801z M252.73,254.81
			c-29.776,0-54.008-24.232-54.008-54.008v-38.778c0-29.777,24.232-54.008,54.008-54.008c29.776,0,54.007,24.213,54.008,54.008
			v38.778C306.738,230.579,282.506,254.81,252.73,254.81z"/>
		<path d="M396.75,182.798c39.696,0,72.011-32.314,72.01-72.01V72.01C468.76,32.297,436.463,0,396.75,0s-72.01,32.297-72.01,72.01
			v38.778C324.74,150.501,357.036,182.798,396.75,182.798z M342.742,72.011c0-29.776,24.232-54.008,54.008-54.008
			c29.777,0,54.008,24.231,54.008,54.007v38.779c0,29.777-24.232,54.008-54.008,54.008s-54.008-24.232-54.008-54.008V72.011z"/>
	</g>
</g>
<g>
</g>
<g>
</g>
<g>
</g>
<g>
</g>
<g>
</g>
<g>
</g>
<g>
</g>
<g>
</g>
<g>
</g>
<g>
</g>
<g>
</g>
<g>
</g>
<g>
</g>
<g>
</g>
<g>
</g>
</svg>
