<?xml version="1.0" encoding="iso-8859-1"?>
<!-- Generator: Adobe Illustrator 19.1.0, SVG Export Plug-In . SVG Version: 6.00 Build 0)  -->
<svg version="1.1" id="Capa_1" xmlns="http://www.w3.org/2000/svg" xmlns:xlink="http://www.w3.org/1999/xlink" x="0px" y="0px"
	 viewBox="0 0 539.422 539.422" style="enable-background:new 0 0 539.422 539.422;" xml:space="preserve">
<g>
	<g>
		<path d="M536.783,272.203c-71.381-71.272-166.218-110.518-267.069-110.518S74.025,200.931,2.645,272.203
			c-3.24,3.241-3.546,8.389-0.684,11.99c65.44,82.326,163.032,129.547,267.753,129.547s202.313-47.238,267.753-129.565
			C540.312,280.592,540.023,275.443,536.783,272.203z M21.17,279.261c39.394-37.633,85.874-65.31,136.369-81.802
			c-20.522,25.299-31.864,56.796-31.864,90.246c0,32.022,10.448,62.384,29.417,87.158C103.657,355.393,57.539,322.813,21.17,279.261
			z M191.272,386.166c-30.272-24.119-47.594-59.916-47.594-98.461c0-39.416,17.999-75.739,49.406-99.868
			c24.899-5.37,50.552-8.13,76.63-8.13c26.071,0,51.717,2.76,76.611,8.129c31.407,24.13,49.407,60.452,49.407,99.869
			c0,38.547-17.325,74.348-47.601,98.466c-25.334,6.299-51.628,9.567-78.417,9.567C242.917,395.738,216.615,392.468,191.272,386.166
			z M384.313,374.87c18.973-24.775,29.422-55.14,29.422-87.165c0-33.457-11.338-64.952-31.853-90.243
			c50.498,16.495,96.981,44.174,136.376,81.799C481.874,322.818,435.752,355.4,384.313,374.87z"/>
		<path d="M269.715,89.694c89.094,0,173.545,34.259,237.778,96.476l12.493-12.944c-67.618-65.494-156.497-101.553-250.29-101.553
			s-182.672,36.06-250.29,101.553l12.53,12.944C96.169,123.953,180.621,89.694,269.715,89.694z"/>
		<path d="M269.714,449.727c-89.095,0-173.545-34.259-237.778-96.476l-12.512,12.944c67.618,65.494,156.496,101.553,250.29,101.553
			s182.673-36.059,250.29-101.553l-12.512-12.944C443.259,415.468,358.809,449.727,269.714,449.727z"/>
		<path d="M269.714,215.713c-39.713,0-72.01,32.297-72.01,72.01s32.296,72.01,72.01,72.01s72.01-32.297,72.01-72.01
			S309.427,215.713,269.714,215.713z M269.714,341.73c-29.776,0-54.008-24.232-54.008-54.008c0-29.777,24.232-54.008,54.008-54.008
			c29.777,0,54.008,24.232,54.008,54.008S299.49,341.73,269.714,341.73z"/>
	</g>
</g>
<g>
</g>
<g>
</g>
<g>
</g>
<g>
</g>
<g>
</g>
<g>
</g>
<g>
</g>
<g>
</g>
<g>
</g>
<g>
</g>
<g>
</g>
<g>
</g>
<g>
</g>
<g>
</g>
<g>
</g>
</svg>
